<?xml version="1.0" encoding="UTF-8" standalone="no"?>
<svg
   width="512"
   height="190"
   viewBox="0 0 512 190"
   fill="none"
   version="1.1"
   id="svg266"
   sodipodi:docname="hoplr-text--blue.svg"
   inkscape:version="1.2.2 (b0a8486541, 2022-12-01)"
   xmlns:inkscape="http://www.inkscape.org/namespaces/inkscape"
   xmlns:sodipodi="http://sodipodi.sourceforge.net/DTD/sodipodi-0.dtd"
   xmlns="http://www.w3.org/2000/svg"
   xmlns:svg="http://www.w3.org/2000/svg">
  <defs
     id="defs270" />
  <sodipodi:namedview
     id="namedview268"
     pagecolor="#ffffff"
     bordercolor="#000000"
     borderopacity="0.25"
     inkscape:showpageshadow="2"
     inkscape:pageopacity="0.0"
     inkscape:pagecheckerboard="0"
     inkscape:deskcolor="#d1d1d1"
     showgrid="false"
     inkscape:zoom="2.546875"
     inkscape:cx="177.66871"
     inkscape:cy="95.214724"
     inkscape:window-width="2560"
     inkscape:window-height="1382"
     inkscape:window-x="0"
     inkscape:window-y="0"
     inkscape:window-maximized="1"
     inkscape:current-layer="svg266" />
  <path
     d="M16.1186 151.889C10.9425 151.889 6.95555 150.49 4.15768 147.692C1.49971 144.894 0.170721 140.907 0.170721 135.731V16.3319C0.170721 11.016 1.49971 7.029 4.15768 4.37103C6.95555 1.57316 10.9425 0.174222 16.1186 0.174222C21.1547 0.174222 25.0018 1.57316 27.6598 4.37103C30.4576 7.029 31.8566 11.016 31.8566 16.3319V66.2738H28.9188C32.1364 59.4191 36.8927 54.1731 43.1879 50.5358C49.623 46.7587 56.8975 44.8701 65.0113 44.8701C73.265 44.8701 80.0498 46.4789 85.3658 49.6965C90.6817 52.7741 94.6687 57.5305 97.3267 63.9656C99.9846 70.2608 101.314 78.3047 101.314 88.0972V135.731C101.314 140.907 99.9147 144.894 97.1168 147.692C94.4588 150.49 90.5418 151.889 85.3658 151.889C80.3296 151.889 76.4126 150.49 73.6147 147.692C70.9568 144.894 69.6278 140.907 69.6278 135.731V89.5661C69.6278 82.4315 68.2988 77.3254 65.6408 74.2477C63.1227 71.0302 59.2057 69.4214 53.8898 69.4214C47.1749 69.4214 41.789 71.5198 37.7321 75.7166C33.8151 79.9134 31.8566 85.5092 31.8566 92.5038V135.731C31.8566 146.503 26.6106 151.889 16.1186 151.889ZM172.392 152.308C161.34 152.308 151.688 150.14 143.434 145.803C135.32 141.467 129.025 135.241 124.548 127.127C120.072 119.014 117.834 109.431 117.834 98.3794C117.834 90.1256 119.093 82.7113 121.611 76.1363C124.129 69.5613 127.766 63.9656 132.522 59.3491C137.419 54.5927 143.224 51.0255 149.939 48.6473C156.654 46.1292 164.138 44.8701 172.392 44.8701C183.444 44.8701 193.026 47.0385 201.14 51.3752C209.394 55.7119 215.759 61.8672 220.236 69.8411C224.852 77.815 227.16 87.3278 227.16 98.3794C227.16 106.773 225.831 114.257 223.173 120.832C220.655 127.407 217.018 133.073 212.262 137.829C207.505 142.586 201.7 146.223 194.845 148.741C188.13 151.119 180.646 152.308 172.392 152.308ZM172.392 128.596C177.008 128.596 180.995 127.477 184.353 125.239C187.71 123.001 190.368 119.713 192.327 115.376C194.285 110.9 195.265 105.234 195.265 98.3794C195.265 88.1671 193.166 80.6828 188.969 75.9265C184.773 71.0302 179.247 68.5821 172.392 68.5821C167.915 68.5821 163.928 69.6313 160.431 71.7297C157.074 73.8281 154.416 77.1156 152.457 81.5922C150.639 85.9288 149.729 91.5246 149.729 98.3794C149.729 108.592 151.828 116.216 156.024 121.252C160.221 126.148 165.677 128.596 172.392 128.596ZM260.287 189.66C255.111 189.66 251.124 188.261 248.326 185.463C245.668 182.805 244.339 178.818 244.339 173.502V61.2377C244.339 56.0616 245.668 52.1446 248.326 49.4866C251.124 46.6888 254.971 45.2898 259.867 45.2898C265.043 45.2898 268.96 46.6888 271.618 49.4866C274.276 52.1446 275.605 56.0616 275.605 61.2377V75.5068L273.297 67.323C275.396 60.6081 279.592 55.2223 285.888 51.1654C292.323 46.9685 299.667 44.8701 307.921 44.8701C316.874 44.8701 324.708 47.0385 331.423 51.3752C338.278 55.7119 343.594 61.8672 347.371 69.8411C351.148 77.815 353.036 87.3278 353.036 98.3794C353.036 109.431 351.148 119.014 347.371 127.127C343.594 135.241 338.348 141.467 331.633 145.803C324.918 150.14 317.014 152.308 307.921 152.308C299.807 152.308 292.602 150.35 286.307 146.433C280.012 142.376 275.745 137.13 273.507 130.695H276.025V173.502C276.025 178.818 274.626 182.805 271.828 185.463C269.17 188.261 265.323 189.66 260.287 189.66ZM298.478 128.596C302.955 128.596 306.872 127.477 310.229 125.239C313.726 123.001 316.384 119.713 318.203 115.376C320.161 110.9 321.141 105.234 321.141 98.3794C321.141 88.1671 319.042 80.6828 314.845 75.9265C310.649 71.0302 305.193 68.5821 298.478 68.5821C294.001 68.5821 290.014 69.6313 286.517 71.7297C283.16 73.8281 280.502 77.1156 278.543 81.5922C276.585 85.9288 275.605 91.5246 275.605 98.3794C275.605 108.592 277.704 116.216 281.901 121.252C286.097 126.148 291.623 128.596 298.478 128.596ZM407.459 152.308C395.008 152.308 385.705 148.881 379.55 142.026C373.395 135.031 370.317 124.679 370.317 110.97V16.3319C370.317 11.016 371.646 7.029 374.304 4.37103C377.102 1.57316 381.089 0.174222 386.265 0.174222C391.301 0.174222 395.148 1.57316 397.806 4.37103C400.604 7.029 402.003 11.016 402.003 16.3319V109.711C402.003 115.446 403.192 119.713 405.57 122.511C408.088 125.169 411.376 126.498 415.433 126.498C416.552 126.498 417.601 126.428 418.58 126.288C419.559 126.148 420.609 126.078 421.728 126.078C423.966 125.798 425.505 126.498 426.344 128.177C427.324 129.715 427.813 132.863 427.813 137.619C427.813 141.816 426.974 145.034 425.295 147.272C423.616 149.37 421.028 150.769 417.531 151.469C416.132 151.609 414.523 151.749 412.705 151.889C410.886 152.168 409.137 152.308 407.459 152.308ZM454.465 151.889C449.149 151.889 445.092 150.49 442.294 147.692C439.496 144.894 438.097 140.907 438.097 135.731V61.2377C438.097 56.0616 439.426 52.1446 442.084 49.4866C444.882 46.6888 448.729 45.2898 453.625 45.2898C458.661 45.2898 462.508 46.6888 465.166 49.4866C467.824 52.1446 469.153 56.0616 469.153 61.2377V72.1494H467.055C468.734 63.7558 472.441 57.2507 478.176 52.6342C483.912 48.0178 491.326 45.4297 500.419 44.8701C503.917 44.5904 506.575 45.4997 508.393 47.5981C510.352 49.5566 511.401 52.8441 511.541 57.4606C511.821 61.7972 510.911 65.2246 508.813 67.7427C506.855 70.2608 503.497 71.7996 498.741 72.3592L493.914 72.7789C485.941 73.4783 479.995 75.7866 476.078 79.7036C472.301 83.6206 470.412 89.2863 470.412 96.7006V135.731C470.412 140.907 469.013 144.894 466.216 147.692C463.558 150.49 459.641 151.889 454.465 151.889Z"
     fill="#FF315D"
     id="path264"
     style="fill:#000d6d;fill-opacity:1" />
</svg>
