<svg xmlns="http://www.w3.org/2000/svg" xmlns:xlink="http://www.w3.org/1999/xlink" width="376" zoomAndPan="magnify" viewBox="0 0 282 74.999997" height="100" preserveAspectRatio="xMidYMid meet" version="1.2"><defs/><g id="3a55f86891"><g style="fill:#232323;fill-opacity:1;"><g transform="translate(130.821792, 37.481053)"><path style="stroke:none" d="M 14.65625 -25.234375 L 24.84375 0 L 18.65625 0 L 16.796875 -5.046875 L 7.1875 -5.046875 L 5.328125 0 L -0.859375 0 L 9.328125 -25.234375 Z M 14.84375 -10.09375 L 12.015625 -17.4375 L 11.96875 -17.4375 L 9.140625 -10.09375 Z M 14.84375 -10.09375 "/></g></g><g style="fill:#232323;fill-opacity:1;"><g transform="translate(154.158605, 37.481053)"><path style="stroke:none" d="M 15.265625 -5.203125 C 16.140625 -5.203125 16.988281 -5.332031 17.8125 -5.59375 C 18.644531 -5.863281 19.253906 -6.117188 19.640625 -6.359375 L 20.21875 -6.765625 L 22.671875 -1.859375 C 22.585938 -1.804688 22.472656 -1.726562 22.328125 -1.625 C 22.191406 -1.519531 21.863281 -1.328125 21.34375 -1.046875 C 20.820312 -0.773438 20.265625 -0.535156 19.671875 -0.328125 C 19.078125 -0.128906 18.300781 0.046875 17.34375 0.203125 C 16.382812 0.367188 15.394531 0.453125 14.375 0.453125 C 12.03125 0.453125 9.804688 -0.117188 7.703125 -1.265625 C 5.609375 -2.421875 3.914062 -4.007812 2.625 -6.03125 C 1.34375 -8.050781 0.703125 -10.234375 0.703125 -12.578125 C 0.703125 -14.347656 1.078125 -16.046875 1.828125 -17.671875 C 2.585938 -19.304688 3.59375 -20.707031 4.84375 -21.875 C 6.101562 -23.039062 7.566406 -23.96875 9.234375 -24.65625 C 10.910156 -25.351562 12.625 -25.703125 14.375 -25.703125 C 16.007812 -25.703125 17.515625 -25.503906 18.890625 -25.109375 C 20.265625 -24.722656 21.238281 -24.335938 21.8125 -23.953125 L 22.671875 -23.375 L 20.21875 -18.484375 C 20.082031 -18.597656 19.867188 -18.742188 19.578125 -18.921875 C 19.296875 -19.097656 18.722656 -19.328125 17.859375 -19.609375 C 17.003906 -19.890625 16.140625 -20.03125 15.265625 -20.03125 C 13.878906 -20.03125 12.632812 -19.804688 11.53125 -19.359375 C 10.425781 -18.910156 9.550781 -18.316406 8.90625 -17.578125 C 8.269531 -16.847656 7.78125 -16.0625 7.4375 -15.21875 C 7.101562 -14.375 6.9375 -13.515625 6.9375 -12.640625 C 6.9375 -10.722656 7.65625 -9.003906 9.09375 -7.484375 C 10.539062 -5.960938 12.597656 -5.203125 15.265625 -5.203125 Z M 15.265625 -5.203125 "/></g></g><g style="fill:#232323;fill-opacity:1;"><g transform="translate(176.547252, 37.481053)"><path style="stroke:none" d="M 15.265625 -5.203125 C 16.140625 -5.203125 16.988281 -5.332031 17.8125 -5.59375 C 18.644531 -5.863281 19.253906 -6.117188 19.640625 -6.359375 L 20.21875 -6.765625 L 22.671875 -1.859375 C 22.585938 -1.804688 22.472656 -1.726562 22.328125 -1.625 C 22.191406 -1.519531 21.863281 -1.328125 21.34375 -1.046875 C 20.820312 -0.773438 20.265625 -0.535156 19.671875 -0.328125 C 19.078125 -0.128906 18.300781 0.046875 17.34375 0.203125 C 16.382812 0.367188 15.394531 0.453125 14.375 0.453125 C 12.03125 0.453125 9.804688 -0.117188 7.703125 -1.265625 C 5.609375 -2.421875 3.914062 -4.007812 2.625 -6.03125 C 1.34375 -8.050781 0.703125 -10.234375 0.703125 -12.578125 C 0.703125 -14.347656 1.078125 -16.046875 1.828125 -17.671875 C 2.585938 -19.304688 3.59375 -20.707031 4.84375 -21.875 C 6.101562 -23.039062 7.566406 -23.96875 9.234375 -24.65625 C 10.910156 -25.351562 12.625 -25.703125 14.375 -25.703125 C 16.007812 -25.703125 17.515625 -25.503906 18.890625 -25.109375 C 20.265625 -24.722656 21.238281 -24.335938 21.8125 -23.953125 L 22.671875 -23.375 L 20.21875 -18.484375 C 20.082031 -18.597656 19.867188 -18.742188 19.578125 -18.921875 C 19.296875 -19.097656 18.722656 -19.328125 17.859375 -19.609375 C 17.003906 -19.890625 16.140625 -20.03125 15.265625 -20.03125 C 13.878906 -20.03125 12.632812 -19.804688 11.53125 -19.359375 C 10.425781 -18.910156 9.550781 -18.316406 8.90625 -17.578125 C 8.269531 -16.847656 7.78125 -16.0625 7.4375 -15.21875 C 7.101562 -14.375 6.9375 -13.515625 6.9375 -12.640625 C 6.9375 -10.722656 7.65625 -9.003906 9.09375 -7.484375 C 10.539062 -5.960938 12.597656 -5.203125 15.265625 -5.203125 Z M 15.265625 -5.203125 "/></g></g><g style="fill:#232323;fill-opacity:1;"><g transform="translate(198.935899, 37.481053)"><path style="stroke:none" d="M 16.28125 -25.234375 L 16.28125 -20.1875 L 7.59375 -20.1875 L 7.59375 -15.171875 L 15.90625 -15.171875 L 15.90625 -10.125 L 7.59375 -10.125 L 7.59375 -5.046875 L 16.28125 -5.046875 L 16.28125 0 L 1.828125 0 L 1.828125 -25.234375 Z M 16.28125 -25.234375 "/></g></g><g style="fill:#232323;fill-opacity:1;"><g transform="translate(216.033188, 37.481053)"><path style="stroke:none" d="M 11.140625 -25.703125 C 12.503906 -25.703125 13.835938 -25.5 15.140625 -25.09375 C 16.453125 -24.695312 17.421875 -24.304688 18.046875 -23.921875 L 18.96875 -23.3125 L 16.640625 -18.71875 C 16.460938 -18.84375 16.207031 -19 15.875 -19.1875 C 15.550781 -19.382812 14.941406 -19.644531 14.046875 -19.96875 C 13.148438 -20.300781 12.3125 -20.46875 11.53125 -20.46875 C 10.570312 -20.46875 9.832031 -20.265625 9.3125 -19.859375 C 8.789062 -19.453125 8.53125 -18.898438 8.53125 -18.203125 C 8.53125 -17.859375 8.648438 -17.535156 8.890625 -17.234375 C 9.140625 -16.941406 9.5625 -16.625 10.15625 -16.28125 C 10.75 -15.945312 11.269531 -15.675781 11.71875 -15.46875 C 12.164062 -15.269531 12.859375 -14.96875 13.796875 -14.5625 C 15.429688 -13.863281 16.820312 -12.914062 17.96875 -11.71875 C 19.125 -10.53125 19.703125 -9.179688 19.703125 -7.671875 C 19.703125 -6.222656 19.441406 -4.957031 18.921875 -3.875 C 18.398438 -2.800781 17.6875 -1.957031 16.78125 -1.34375 C 15.875 -0.726562 14.867188 -0.273438 13.765625 0.015625 C 12.660156 0.304688 11.46875 0.453125 10.1875 0.453125 C 9.082031 0.453125 8 0.335938 6.9375 0.109375 C 5.882812 -0.109375 5 -0.382812 4.28125 -0.71875 C 3.570312 -1.050781 2.929688 -1.378906 2.359375 -1.703125 C 1.785156 -2.035156 1.363281 -2.316406 1.09375 -2.546875 L 0.703125 -2.875 L 3.578125 -7.703125 C 3.828125 -7.503906 4.164062 -7.242188 4.59375 -6.921875 C 5.019531 -6.609375 5.773438 -6.1875 6.859375 -5.65625 C 7.953125 -5.125 8.921875 -4.859375 9.765625 -4.859375 C 12.191406 -4.859375 13.40625 -5.6875 13.40625 -7.34375 C 13.40625 -7.6875 13.316406 -8.003906 13.140625 -8.296875 C 12.960938 -8.597656 12.65625 -8.894531 12.21875 -9.1875 C 11.78125 -9.488281 11.394531 -9.722656 11.0625 -9.890625 C 10.726562 -10.066406 10.175781 -10.332031 9.40625 -10.6875 C 8.644531 -11.050781 8.078125 -11.320312 7.703125 -11.5 C 6.179688 -12.257812 5 -13.203125 4.15625 -14.328125 C 3.320312 -15.460938 2.90625 -16.679688 2.90625 -17.984375 C 2.90625 -20.253906 3.738281 -22.109375 5.40625 -23.546875 C 7.082031 -24.984375 8.992188 -25.703125 11.140625 -25.703125 Z M 11.140625 -25.703125 "/></g></g><g style="fill:#232323;fill-opacity:1;"><g transform="translate(235.944384, 37.481053)"><path style="stroke:none" d="M 11.140625 -25.703125 C 12.503906 -25.703125 13.835938 -25.5 15.140625 -25.09375 C 16.453125 -24.695312 17.421875 -24.304688 18.046875 -23.921875 L 18.96875 -23.3125 L 16.640625 -18.71875 C 16.460938 -18.84375 16.207031 -19 15.875 -19.1875 C 15.550781 -19.382812 14.941406 -19.644531 14.046875 -19.96875 C 13.148438 -20.300781 12.3125 -20.46875 11.53125 -20.46875 C 10.570312 -20.46875 9.832031 -20.265625 9.3125 -19.859375 C 8.789062 -19.453125 8.53125 -18.898438 8.53125 -18.203125 C 8.53125 -17.859375 8.648438 -17.535156 8.890625 -17.234375 C 9.140625 -16.941406 9.5625 -16.625 10.15625 -16.28125 C 10.75 -15.945312 11.269531 -15.675781 11.71875 -15.46875 C 12.164062 -15.269531 12.859375 -14.96875 13.796875 -14.5625 C 15.429688 -13.863281 16.820312 -12.914062 17.96875 -11.71875 C 19.125 -10.53125 19.703125 -9.179688 19.703125 -7.671875 C 19.703125 -6.222656 19.441406 -4.957031 18.921875 -3.875 C 18.398438 -2.800781 17.6875 -1.957031 16.78125 -1.34375 C 15.875 -0.726562 14.867188 -0.273438 13.765625 0.015625 C 12.660156 0.304688 11.46875 0.453125 10.1875 0.453125 C 9.082031 0.453125 8 0.335938 6.9375 0.109375 C 5.882812 -0.109375 5 -0.382812 4.28125 -0.71875 C 3.570312 -1.050781 2.929688 -1.378906 2.359375 -1.703125 C 1.785156 -2.035156 1.363281 -2.316406 1.09375 -2.546875 L 0.703125 -2.875 L 3.578125 -7.703125 C 3.828125 -7.503906 4.164062 -7.242188 4.59375 -6.921875 C 5.019531 -6.609375 5.773438 -6.1875 6.859375 -5.65625 C 7.953125 -5.125 8.921875 -4.859375 9.765625 -4.859375 C 12.191406 -4.859375 13.40625 -5.6875 13.40625 -7.34375 C 13.40625 -7.6875 13.316406 -8.003906 13.140625 -8.296875 C 12.960938 -8.597656 12.65625 -8.894531 12.21875 -9.1875 C 11.78125 -9.488281 11.394531 -9.722656 11.0625 -9.890625 C 10.726562 -10.066406 10.175781 -10.332031 9.40625 -10.6875 C 8.644531 -11.050781 8.078125 -11.320312 7.703125 -11.5 C 6.179688 -12.257812 5 -13.203125 4.15625 -14.328125 C 3.320312 -15.460938 2.90625 -16.679688 2.90625 -17.984375 C 2.90625 -20.253906 3.738281 -22.109375 5.40625 -23.546875 C 7.082031 -24.984375 8.992188 -25.703125 11.140625 -25.703125 Z M 11.140625 -25.703125 "/></g></g><g style="fill:#a30d4b;fill-opacity:1;"><g transform="translate(10.921944, 37.481053)"><path style="stroke:none" d="M 1.78125 -24.421875 L 10.6875 -24.421875 C 13.164062 -24.421875 15.175781 -23.773438 16.71875 -22.484375 C 18.257812 -21.203125 19.03125 -19.335938 19.03125 -16.890625 C 19.03125 -14.453125 18.25 -12.535156 16.6875 -11.140625 C 15.132812 -9.753906 13.132812 -9.0625 10.6875 -9.0625 L 7.34375 -9.0625 L 7.34375 0 L 1.78125 0 Z M 7.34375 -13.5 L 8.90625 -13.5 C 10.144531 -13.5 11.164062 -13.75 11.96875 -14.25 C 12.769531 -14.75 13.171875 -15.570312 13.171875 -16.71875 C 13.171875 -17.882812 12.769531 -18.71875 11.96875 -19.21875 C 11.164062 -19.71875 10.144531 -19.96875 8.90625 -19.96875 L 7.34375 -19.96875 Z M 7.34375 -13.5 "/></g></g><g style="fill:#a30d4b;fill-opacity:1;"><g transform="translate(29.267188, 37.481053)"><path style="stroke:none" d="M 1.78125 -24.421875 L 10.5 -24.421875 C 12.851562 -24.421875 14.769531 -23.789062 16.25 -22.53125 C 17.726562 -21.28125 18.46875 -19.492188 18.46875 -17.171875 C 18.46875 -15.367188 18.019531 -13.859375 17.125 -12.640625 C 16.226562 -11.429688 15.007812 -10.582031 13.46875 -10.09375 L 21.875 0 L 14.796875 0 L 7.34375 -9.640625 L 7.34375 0 L 1.78125 0 Z M 7.34375 -13.578125 L 7.984375 -13.578125 C 8.503906 -13.578125 8.941406 -13.585938 9.296875 -13.609375 C 9.648438 -13.628906 10.050781 -13.695312 10.5 -13.8125 C 10.957031 -13.9375 11.320312 -14.109375 11.59375 -14.328125 C 11.875 -14.546875 12.113281 -14.859375 12.3125 -15.265625 C 12.507812 -15.679688 12.609375 -16.1875 12.609375 -16.78125 C 12.609375 -17.375 12.507812 -17.875 12.3125 -18.28125 C 12.113281 -18.695312 11.875 -19.015625 11.59375 -19.234375 C 11.320312 -19.453125 10.957031 -19.617188 10.5 -19.734375 C 10.050781 -19.859375 9.648438 -19.925781 9.296875 -19.9375 C 8.941406 -19.957031 8.503906 -19.96875 7.984375 -19.96875 L 7.34375 -19.96875 Z M 7.34375 -13.578125 "/></g></g><g style="fill:#a30d4b;fill-opacity:1;"><g transform="translate(49.091923, 37.481053)"><path style="stroke:none" d="M 0.6875 -12.21875 C 0.6875 -15.75 1.890625 -18.738281 4.296875 -21.1875 C 6.703125 -23.632812 9.597656 -24.859375 12.984375 -24.859375 C 16.398438 -24.859375 19.300781 -23.640625 21.6875 -21.203125 C 24.070312 -18.765625 25.265625 -15.769531 25.265625 -12.21875 C 25.265625 -8.644531 24.09375 -5.640625 21.75 -3.203125 C 19.40625 -0.773438 16.484375 0.4375 12.984375 0.4375 C 9.421875 0.4375 6.476562 -0.769531 4.15625 -3.1875 C 1.84375 -5.601562 0.6875 -8.613281 0.6875 -12.21875 Z M 6.6875 -12.21875 C 6.6875 -10.9375 6.882812 -9.765625 7.28125 -8.703125 C 7.675781 -7.648438 8.363281 -6.757812 9.34375 -6.03125 C 10.332031 -5.300781 11.546875 -4.9375 12.984375 -4.9375 C 15.054688 -4.9375 16.617188 -5.644531 17.671875 -7.0625 C 18.734375 -8.488281 19.265625 -10.207031 19.265625 -12.21875 C 19.265625 -14.21875 18.726562 -15.929688 17.65625 -17.359375 C 16.582031 -18.785156 15.023438 -19.5 12.984375 -19.5 C 10.972656 -19.5 9.421875 -18.785156 8.328125 -17.359375 C 7.234375 -15.929688 6.6875 -14.21875 6.6875 -12.21875 Z M 6.6875 -12.21875 "/></g></g><g style="fill:#a30d4b;fill-opacity:1;"><g transform="translate(73.680617, 37.481053)"><path style="stroke:none" d="M 1.78125 -24.421875 L 10.6875 -24.421875 C 13.164062 -24.421875 15.175781 -23.773438 16.71875 -22.484375 C 18.257812 -21.203125 19.03125 -19.335938 19.03125 -16.890625 C 19.03125 -14.453125 18.25 -12.535156 16.6875 -11.140625 C 15.132812 -9.753906 13.132812 -9.0625 10.6875 -9.0625 L 7.34375 -9.0625 L 7.34375 0 L 1.78125 0 Z M 7.34375 -13.5 L 8.90625 -13.5 C 10.144531 -13.5 11.164062 -13.75 11.96875 -14.25 C 12.769531 -14.75 13.171875 -15.570312 13.171875 -16.71875 C 13.171875 -17.882812 12.769531 -18.71875 11.96875 -19.21875 C 11.164062 -19.71875 10.144531 -19.96875 8.90625 -19.96875 L 7.34375 -19.96875 Z M 7.34375 -13.5 "/></g></g><g style="fill:#a30d4b;fill-opacity:1;"><g transform="translate(92.02586, 37.481053)"><path style="stroke:none" d="M 15.75 -24.421875 L 15.75 -19.53125 L 7.34375 -19.53125 L 7.34375 -14.671875 L 15.390625 -14.671875 L 15.390625 -9.796875 L 7.34375 -9.796875 L 7.34375 -4.890625 L 15.75 -4.890625 L 15.75 0 L 1.78125 0 L 1.78125 -24.421875 Z M 15.75 -24.421875 "/></g></g><g style="fill:#a30d4b;fill-opacity:1;"><g transform="translate(107.826385, 37.481053)"><path style="stroke:none" d="M 1.78125 -24.421875 L 10.5 -24.421875 C 12.851562 -24.421875 14.769531 -23.789062 16.25 -22.53125 C 17.726562 -21.28125 18.46875 -19.492188 18.46875 -17.171875 C 18.46875 -15.367188 18.019531 -13.859375 17.125 -12.640625 C 16.226562 -11.429688 15.007812 -10.582031 13.46875 -10.09375 L 21.875 0 L 14.796875 0 L 7.34375 -9.640625 L 7.34375 0 L 1.78125 0 Z M 7.34375 -13.578125 L 7.984375 -13.578125 C 8.503906 -13.578125 8.941406 -13.585938 9.296875 -13.609375 C 9.648438 -13.628906 10.050781 -13.695312 10.5 -13.8125 C 10.957031 -13.9375 11.320312 -14.109375 11.59375 -14.328125 C 11.875 -14.546875 12.113281 -14.859375 12.3125 -15.265625 C 12.507812 -15.679688 12.609375 -16.1875 12.609375 -16.78125 C 12.609375 -17.375 12.507812 -17.875 12.3125 -18.28125 C 12.113281 -18.695312 11.875 -19.015625 11.59375 -19.234375 C 11.320312 -19.453125 10.957031 -19.617188 10.5 -19.734375 C 10.050781 -19.859375 9.648438 -19.925781 9.296875 -19.9375 C 8.941406 -19.957031 8.503906 -19.96875 7.984375 -19.96875 L 7.34375 -19.96875 Z M 7.34375 -13.578125 "/></g></g><g style="fill:#000000;fill-opacity:1;"><g transform="translate(10.921944, 59.386482)"><path style="stroke:none" d="M 6.734375 -12.953125 C 8.609375 -12.953125 10.046875 -12.429688 11.046875 -11.390625 C 12.046875 -10.359375 12.546875 -8.867188 12.546875 -6.921875 C 12.546875 -4.640625 11.984375 -2.890625 10.859375 -1.671875 C 9.742188 -0.460938 8.144531 0.140625 6.0625 0.140625 C 5.4375 0.140625 4.6875 0.125 3.8125 0.09375 C 2.9375 0.0703125 2.1875 0.0390625 1.5625 0 L 1.703125 -3.84375 L 1.5625 -12.875 Z M 6.546875 -1.953125 C 8.660156 -1.953125 9.71875 -3.398438 9.71875 -6.296875 C 9.71875 -7.867188 9.460938 -9.007812 8.953125 -9.71875 C 8.441406 -10.4375 7.640625 -10.796875 6.546875 -10.796875 C 5.835938 -10.796875 5.082031 -10.765625 4.28125 -10.703125 L 4.15625 -4.078125 L 4.21875 -2.09375 C 5.15625 -2 5.929688 -1.953125 6.546875 -1.953125 Z M 6.546875 -1.953125 "/></g></g><g style="fill:#000000;fill-opacity:1;"><g transform="translate(24.016776, 59.386482)"><path style="stroke:none" d="M 4.15625 -4.078125 L 4.28125 0 L 1.5625 0 L 1.703125 -3.84375 L 1.5625 -12.875 L 4.3125 -12.875 Z M 4.15625 -4.078125 "/></g></g><g style="fill:#000000;fill-opacity:1;"><g transform="translate(29.914454, 59.386482)"><path style="stroke:none" d="M 7.28125 -13.046875 C 8.675781 -13.046875 9.9375 -12.785156 11.0625 -12.265625 L 10.484375 -9.8125 L 10.21875 -9.78125 C 9.5625 -10.15625 8.976562 -10.425781 8.46875 -10.59375 C 7.957031 -10.757812 7.40625 -10.84375 6.8125 -10.84375 C 5.632812 -10.84375 4.769531 -10.488281 4.21875 -9.78125 C 3.675781 -9.070312 3.40625 -7.910156 3.40625 -6.296875 C 3.40625 -5.234375 3.519531 -4.382812 3.75 -3.75 C 3.976562 -3.125 4.335938 -2.664062 4.828125 -2.375 C 5.328125 -2.09375 5.984375 -1.953125 6.796875 -1.953125 C 7.078125 -1.953125 7.335938 -1.972656 7.578125 -2.015625 C 7.828125 -2.054688 8.132812 -2.128906 8.5 -2.234375 L 8.546875 -3.34375 L 8.5 -5.375 L 11 -5.5625 L 10.9375 -3.765625 L 11 -0.625 C 9.394531 -0.0820312 7.921875 0.1875 6.578125 0.1875 C 4.578125 0.1875 3.070312 -0.359375 2.0625 -1.453125 C 1.0625 -2.546875 0.5625 -4.113281 0.5625 -6.15625 C 0.5625 -8.382812 1.144531 -10.085938 2.3125 -11.265625 C 3.476562 -12.453125 5.132812 -13.046875 7.28125 -13.046875 Z M 7.28125 -13.046875 "/></g></g><g style="fill:#000000;fill-opacity:1;"><g transform="translate(41.869741, 59.386482)"><path style="stroke:none" d="M 4.15625 -4.078125 L 4.28125 0 L 1.5625 0 L 1.703125 -3.84375 L 1.5625 -12.875 L 4.3125 -12.875 Z M 4.15625 -4.078125 "/></g></g><g style="fill:#000000;fill-opacity:1;"><g transform="translate(47.767419, 59.386482)"><path style="stroke:none" d="M 9.78125 -12.65625 L 9.625 -10.640625 L 7.203125 -10.765625 L 6.40625 -10.765625 L 6.296875 -4.078125 L 6.421875 0 L 3.703125 0 L 3.84375 -3.84375 L 3.734375 -10.765625 L 2.9375 -10.765625 L 0.484375 -10.640625 L 0.296875 -10.859375 L 0.484375 -12.875 L 9.625 -12.875 Z M 9.78125 -12.65625 "/></g></g><g style="fill:#000000;fill-opacity:1;"><g transform="translate(57.823456, 59.386482)"><path style="stroke:none" d="M 11.6875 0 L 8.921875 0 L 8.59375 -1.6875 L 8.265625 -2.875 L 5.734375 -2.9375 L 3.515625 -2.875 L 3.1875 -1.8125 L 2.84375 0 L 0.15625 0 L 4.515625 -12.875 L 7.734375 -12.875 Z M 7.6875 -4.984375 L 6.15625 -10.34375 L 5.984375 -10.34375 L 4.21875 -4.984375 L 5.9375 -4.9375 Z M 7.6875 -4.984375 "/></g></g><g style="fill:#000000;fill-opacity:1;"><g transform="translate(69.818729, 59.386482)"><path style="stroke:none" d="M 8.625 -2.015625 L 8.4375 0 L 1.484375 0 L 1.625 -3.84375 L 1.484375 -12.875 L 4.234375 -12.875 L 4.078125 -4.078125 L 4.140625 -2.234375 L 8.453125 -2.234375 Z M 8.625 -2.015625 "/></g></g><g style="fill:#000000;fill-opacity:1;"><g transform="translate(78.475314, 59.386482)"><path style="stroke:none" d="M 9.65625 -2.234375 L 9.8125 -2.015625 L 9.640625 0 L 1.5625 0 L 1.703125 -3.84375 L 1.5625 -12.875 L 9.71875 -12.875 L 9.875 -12.65625 L 9.6875 -10.640625 L 6.59375 -10.734375 L 4.28125 -10.71875 L 4.21875 -7.625 L 6.4375 -7.578125 L 8.546875 -7.640625 L 8.703125 -7.4375 L 8.515625 -5.421875 L 6.234375 -5.484375 L 4.1875 -5.453125 L 4.15625 -4.078125 L 4.21875 -2.140625 L 6.484375 -2.125 Z M 9.65625 -2.234375 "/></g></g><g style="fill:#000000;fill-opacity:1;"><g transform="translate(88.651296, 59.386482)"><path style="stroke:none" d=""/></g></g><g style="fill:#000000;fill-opacity:1;"><g transform="translate(91.67011, 59.386482)"><path style="stroke:none" d="M 9.78125 -12.65625 L 9.625 -10.640625 L 7.203125 -10.765625 L 6.40625 -10.765625 L 6.296875 -4.078125 L 6.421875 0 L 3.703125 0 L 3.84375 -3.84375 L 3.734375 -10.765625 L 2.9375 -10.765625 L 0.484375 -10.640625 L 0.296875 -10.859375 L 0.484375 -12.875 L 9.625 -12.875 Z M 9.78125 -12.65625 "/></g></g><g style="fill:#000000;fill-opacity:1;"><g transform="translate(101.726147, 59.386482)"><path style="stroke:none" d="M 6.65625 -13.0625 C 8.46875 -13.0625 9.863281 -12.507812 10.84375 -11.40625 C 11.820312 -10.3125 12.3125 -8.75 12.3125 -6.71875 C 12.3125 -4.507812 11.78125 -2.800781 10.71875 -1.59375 C 9.65625 -0.394531 8.148438 0.203125 6.203125 0.203125 C 4.398438 0.203125 3.007812 -0.359375 2.03125 -1.484375 C 1.050781 -2.617188 0.5625 -4.21875 0.5625 -6.28125 C 0.5625 -8.457031 1.085938 -10.128906 2.140625 -11.296875 C 3.203125 -12.472656 4.707031 -13.0625 6.65625 -13.0625 Z M 6.421875 -10.875 C 5.347656 -10.875 4.570312 -10.539062 4.09375 -9.875 C 3.613281 -9.207031 3.375 -8.125 3.375 -6.625 C 3.375 -4.90625 3.609375 -3.675781 4.078125 -2.9375 C 4.554688 -2.207031 5.34375 -1.84375 6.4375 -1.84375 C 7.507812 -1.84375 8.285156 -2.175781 8.765625 -2.84375 C 9.242188 -3.519531 9.484375 -4.625 9.484375 -6.15625 C 9.484375 -7.851562 9.242188 -9.0625 8.765625 -9.78125 C 8.296875 -10.507812 7.515625 -10.875 6.421875 -10.875 Z M 6.421875 -10.875 "/></g></g><g style="fill:#000000;fill-opacity:1;"><g transform="translate(114.581077, 59.386482)"><path style="stroke:none" d="M 9.65625 -2.234375 L 9.8125 -2.015625 L 9.640625 0 L 1.5625 0 L 1.703125 -3.84375 L 1.5625 -12.875 L 9.71875 -12.875 L 9.875 -12.65625 L 9.6875 -10.640625 L 6.59375 -10.734375 L 4.28125 -10.71875 L 4.21875 -7.625 L 6.4375 -7.578125 L 8.546875 -7.640625 L 8.703125 -7.4375 L 8.515625 -5.421875 L 6.234375 -5.484375 L 4.1875 -5.453125 L 4.15625 -4.078125 L 4.21875 -2.140625 L 6.484375 -2.125 Z M 9.65625 -2.234375 "/></g></g><g style="fill:#000000;fill-opacity:1;"><g transform="translate(124.75706, 59.386482)"><path style="stroke:none" d="M 7.28125 -13.046875 C 8.675781 -13.046875 9.9375 -12.785156 11.0625 -12.265625 L 10.484375 -9.8125 L 10.21875 -9.78125 C 9.5625 -10.15625 8.976562 -10.425781 8.46875 -10.59375 C 7.957031 -10.757812 7.40625 -10.84375 6.8125 -10.84375 C 5.632812 -10.84375 4.769531 -10.488281 4.21875 -9.78125 C 3.675781 -9.070312 3.40625 -7.910156 3.40625 -6.296875 C 3.40625 -5.234375 3.519531 -4.382812 3.75 -3.75 C 3.976562 -3.125 4.335938 -2.664062 4.828125 -2.375 C 5.328125 -2.09375 5.984375 -1.953125 6.796875 -1.953125 C 7.078125 -1.953125 7.335938 -1.972656 7.578125 -2.015625 C 7.828125 -2.054688 8.132812 -2.128906 8.5 -2.234375 L 8.546875 -3.34375 L 8.5 -5.375 L 11 -5.5625 L 10.9375 -3.765625 L 11 -0.625 C 9.394531 -0.0820312 7.921875 0.1875 6.578125 0.1875 C 4.578125 0.1875 3.070312 -0.359375 2.0625 -1.453125 C 1.0625 -2.546875 0.5625 -4.113281 0.5625 -6.15625 C 0.5625 -8.382812 1.144531 -10.085938 2.3125 -11.265625 C 3.476562 -12.453125 5.132812 -13.046875 7.28125 -13.046875 Z M 7.28125 -13.046875 "/></g></g><g style="fill:#000000;fill-opacity:1;"><g transform="translate(136.712347, 59.386482)"><path style="stroke:none" d="M 11.6875 0 L 8.921875 0 L 8.59375 -1.6875 L 8.265625 -2.875 L 5.734375 -2.9375 L 3.515625 -2.875 L 3.1875 -1.8125 L 2.84375 0 L 0.15625 0 L 4.515625 -12.875 L 7.734375 -12.875 Z M 7.6875 -4.984375 L 6.15625 -10.34375 L 5.984375 -10.34375 L 4.21875 -4.984375 L 5.9375 -4.9375 Z M 7.6875 -4.984375 "/></g></g><g style="fill:#000000;fill-opacity:1;"><g transform="translate(148.707619, 59.386482)"><path style="stroke:none" d="M 12.203125 -3.984375 L 12.296875 0 L 9.375 0 L 4.125 -8.71875 L 3.953125 -8.71875 L 3.9375 -4.4375 L 4.015625 0 L 1.5625 0 L 1.703125 -3.796875 L 1.578125 -12.875 L 4.484375 -12.875 L 9.734375 -4.15625 L 9.921875 -4.15625 L 9.859375 -12.765625 L 12.359375 -12.921875 Z M 12.203125 -3.984375 "/></g></g><g style="fill:#000000;fill-opacity:1;"><g transform="translate(162.602141, 59.386482)"><path style="stroke:none" d="M 6.921875 -6.796875 C 8.347656 -4.804688 9.992188 -2.726562 11.859375 -0.5625 L 11.8125 -0.265625 C 11.070312 -0.078125 10.195312 0.078125 9.1875 0.203125 L 8.859375 0.046875 C 7.109375 -2.273438 5.554688 -4.503906 4.203125 -6.640625 L 4.15625 -4.078125 L 4.265625 0 L 1.5625 0 L 1.703125 -3.84375 L 1.5625 -12.875 L 4.296875 -12.875 L 4.203125 -6.90625 L 7.8125 -11.640625 L 8.5625 -12.875 L 11.484375 -12.875 Z M 6.921875 -6.796875 "/></g></g><g style="fill:#000000;fill-opacity:1;"><g transform="translate(174.27754, 59.386482)"><path style="stroke:none" d="M 9.65625 -2.234375 L 9.8125 -2.015625 L 9.640625 0 L 1.5625 0 L 1.703125 -3.84375 L 1.5625 -12.875 L 9.71875 -12.875 L 9.875 -12.65625 L 9.6875 -10.640625 L 6.59375 -10.734375 L 4.28125 -10.71875 L 4.21875 -7.625 L 6.4375 -7.578125 L 8.546875 -7.640625 L 8.703125 -7.4375 L 8.515625 -5.421875 L 6.234375 -5.484375 L 4.1875 -5.453125 L 4.15625 -4.078125 L 4.21875 -2.140625 L 6.484375 -2.125 Z M 9.65625 -2.234375 "/></g></g><g style="fill:#000000;fill-opacity:1;"><g transform="translate(184.453523, 59.386482)"><path style="stroke:none" d="M 8.625 -2.015625 L 8.4375 0 L 1.484375 0 L 1.625 -3.84375 L 1.484375 -12.875 L 4.234375 -12.875 L 4.078125 -4.078125 L 4.140625 -2.234375 L 8.453125 -2.234375 Z M 8.625 -2.015625 "/></g></g><g style="fill:#000000;fill-opacity:1;"><g transform="translate(193.110108, 59.386482)"><path style="stroke:none" d="M 4.15625 -4.078125 L 4.28125 0 L 1.5625 0 L 1.703125 -3.84375 L 1.5625 -12.875 L 4.3125 -12.875 Z M 4.15625 -4.078125 "/></g></g><g style="fill:#000000;fill-opacity:1;"><g transform="translate(199.007786, 59.386482)"><path style="stroke:none" d="M 5.015625 -4.234375 L 5.0625 -2.421875 C 5.0625 -1.660156 4.929688 -1.015625 4.671875 -0.484375 C 4.421875 0.046875 4.007812 0.519531 3.4375 0.9375 C 2.875 1.351562 2.101562 1.75 1.125 2.125 L 0.296875 0.6875 L 0.296875 0.4375 C 1.128906 0.0078125 1.710938 -0.410156 2.046875 -0.828125 C 2.390625 -1.242188 2.5625 -1.785156 2.5625 -2.453125 L 2.5625 -3.984375 L 2.4375 -10.875 L 0.3125 -10.8125 L 0.125 -11.015625 L 0.265625 -12.875 L 5.15625 -12.875 Z M 5.015625 -4.234375 "/></g></g><g style="fill:#000000;fill-opacity:1;"><g transform="translate(205.705131, 59.386482)"><path style="stroke:none" d="M 6.921875 -6.796875 C 8.347656 -4.804688 9.992188 -2.726562 11.859375 -0.5625 L 11.8125 -0.265625 C 11.070312 -0.078125 10.195312 0.078125 9.1875 0.203125 L 8.859375 0.046875 C 7.109375 -2.273438 5.554688 -4.503906 4.203125 -6.640625 L 4.15625 -4.078125 L 4.265625 0 L 1.5625 0 L 1.703125 -3.84375 L 1.5625 -12.875 L 4.296875 -12.875 L 4.203125 -6.90625 L 7.8125 -11.640625 L 8.5625 -12.875 L 11.484375 -12.875 Z M 6.921875 -6.796875 "/></g></g><g style="fill:#000000;fill-opacity:1;"><g transform="translate(217.38053, 59.386482)"><path style="stroke:none" d="M 12.296875 -4.078125 L 12.375 0 L 9.6875 0 L 9.796875 -3.84375 L 9.78125 -5.34375 L 6.875 -5.359375 L 4.265625 -5.3125 L 4.234375 -4.078125 L 4.34375 0 L 1.640625 0 L 1.78125 -3.84375 L 1.640625 -12.875 L 4.375 -12.875 L 4.296875 -7.5625 L 7.0625 -7.515625 L 9.765625 -7.5625 L 9.6875 -12.875 L 12.4375 -12.875 Z M 12.296875 -4.078125 "/></g></g><g style="fill:#000000;fill-opacity:1;"><g transform="translate(231.295057, 59.386482)"><path style="stroke:none" d="M 9.65625 -2.234375 L 9.8125 -2.015625 L 9.640625 0 L 1.5625 0 L 1.703125 -3.84375 L 1.5625 -12.875 L 9.71875 -12.875 L 9.875 -12.65625 L 9.6875 -10.640625 L 6.59375 -10.734375 L 4.28125 -10.71875 L 4.21875 -7.625 L 6.4375 -7.578125 L 8.546875 -7.640625 L 8.703125 -7.4375 L 8.515625 -5.421875 L 6.234375 -5.484375 L 4.1875 -5.453125 L 4.15625 -4.078125 L 4.21875 -2.140625 L 6.484375 -2.125 Z M 9.65625 -2.234375 "/></g></g><g style="fill:#000000;fill-opacity:1;"><g transform="translate(241.471028, 59.386482)"><path style="stroke:none" d="M 4.15625 -4.078125 L 4.28125 0 L 1.5625 0 L 1.703125 -3.84375 L 1.5625 -12.875 L 4.3125 -12.875 Z M 4.15625 -4.078125 "/></g></g><g style="fill:#000000;fill-opacity:1;"><g transform="translate(247.368717, 59.386482)"><path style="stroke:none" d="M 6.734375 -12.953125 C 8.609375 -12.953125 10.046875 -12.429688 11.046875 -11.390625 C 12.046875 -10.359375 12.546875 -8.867188 12.546875 -6.921875 C 12.546875 -4.640625 11.984375 -2.890625 10.859375 -1.671875 C 9.742188 -0.460938 8.144531 0.140625 6.0625 0.140625 C 5.4375 0.140625 4.6875 0.125 3.8125 0.09375 C 2.9375 0.0703125 2.1875 0.0390625 1.5625 0 L 1.703125 -3.84375 L 1.5625 -12.875 Z M 6.546875 -1.953125 C 8.660156 -1.953125 9.71875 -3.398438 9.71875 -6.296875 C 9.71875 -7.867188 9.460938 -9.007812 8.953125 -9.71875 C 8.441406 -10.4375 7.640625 -10.796875 6.546875 -10.796875 C 5.835938 -10.796875 5.082031 -10.765625 4.28125 -10.703125 L 4.15625 -4.078125 L 4.21875 -2.09375 C 5.15625 -2 5.929688 -1.953125 6.546875 -1.953125 Z M 6.546875 -1.953125 "/></g></g></g></svg>