<svg viewBox="0 0 400 400" fill="none" xmlns="http://www.w3.org/2000/svg">
  <!-- Card 1: Quickscan -->
  <rect x="4" y="4" width="184" height="170" rx="10" fill="#e5e7eb"/>
  <rect x="0" y="0" width="184" height="170" rx="10" fill="#fff" stroke="#e5e7eb" stroke-width="1"/>
  <rect x="0" y="0" width="184" height="6" rx="3" fill="#004050"/>
  <text x="16" y="32" fill="#1F2937" font-family="Nunito Sans, sans-serif" font-size="11" font-weight="700">Quickscan</text>
  <text x="16" y="50" fill="#004050" font-family="Nunito Sans, sans-serif" font-size="16" font-weight="700">v.a. 19</text>
  <line x1="16" y1="60" x2="168" y2="60" stroke="#f3f4f6" stroke-width="1"/>
  <circle cx="24" cy="78" r="4" fill="#004050" opacity="0.3"/>
  <text x="34" y="82" fill="#6B7280" font-family="Nunito, sans-serif" font-size="8">Snelle eerste check</text>
  <circle cx="24" cy="98" r="4" fill="#004050" opacity="0.3"/>
  <text x="34" y="102" fill="#6B7280" font-family="Nunito, sans-serif" font-size="8">Belangrijkste knelpunten</text>
  <circle cx="24" cy="118" r="4" fill="#004050" opacity="0.3"/>
  <text x="34" y="122" fill="#6B7280" font-family="Nunito, sans-serif" font-size="8">Concrete voorbeelden</text>
  <rect x="16" y="138" width="100" height="20" rx="10" fill="#f3f4f6"/>
  <text x="30" y="152" fill="#004050" font-family="Nunito, sans-serif" font-size="8" font-weight="600">Eerste stap</text>

  <!-- Card 2: Content-audit -->
  <rect x="212" y="4" width="184" height="170" rx="10" fill="#e5e7eb"/>
  <rect x="208" y="0" width="184" height="170" rx="10" fill="#fff" stroke="#e5e7eb" stroke-width="1"/>
  <rect x="208" y="0" width="184" height="6" rx="3" fill="#004050"/>
  <text x="224" y="32" fill="#1F2937" font-family="Nunito Sans, sans-serif" font-size="11" font-weight="700">Content-audit</text>
  <text x="224" y="50" fill="#004050" font-family="Nunito Sans, sans-serif" font-size="16" font-weight="700">v.a. 1.300</text>
  <line x1="224" y1="60" x2="376" y2="60" stroke="#f3f4f6" stroke-width="1"/>
  <circle cx="232" cy="78" r="4" fill="#004050" opacity="0.3"/>
  <text x="242" y="82" fill="#6B7280" font-family="Nunito, sans-serif" font-size="8">Teksten &amp; afbeeldingen</text>
  <circle cx="232" cy="98" r="4" fill="#004050" opacity="0.3"/>
  <text x="242" y="102" fill="#6B7280" font-family="Nunito, sans-serif" font-size="8">PDF-toegankelijkheid</text>
  <circle cx="232" cy="118" r="4" fill="#004050" opacity="0.3"/>
  <text x="242" y="122" fill="#6B7280" font-family="Nunito, sans-serif" font-size="8">Alt-teksten &amp; koppen</text>
  <rect x="224" y="138" width="100" height="20" rx="10" fill="#f3f4f6"/>
  <text x="238" y="152" fill="#004050" font-family="Nunito, sans-serif" font-size="8" font-weight="600">Content focus</text>

  <!-- Card 3: Techniekaudit -->
  <rect x="4" y="198" width="184" height="170" rx="10" fill="#e5e7eb"/>
  <rect x="0" y="194" width="184" height="170" rx="10" fill="#fff" stroke="#e5e7eb" stroke-width="1"/>
  <rect x="0" y="194" width="184" height="6" rx="3" fill="#004050"/>
  <text x="16" y="226" fill="#1F2937" font-family="Nunito Sans, sans-serif" font-size="11" font-weight="700">Techniekaudit</text>
  <text x="16" y="244" fill="#004050" font-family="Nunito Sans, sans-serif" font-size="16" font-weight="700">v.a. 1.800</text>
  <line x1="16" y1="254" x2="168" y2="254" stroke="#f3f4f6" stroke-width="1"/>
  <circle cx="24" cy="272" r="4" fill="#004050" opacity="0.3"/>
  <text x="34" y="276" fill="#6B7280" font-family="Nunito, sans-serif" font-size="8">HTML &amp; ARIA</text>
  <circle cx="24" cy="292" r="4" fill="#004050" opacity="0.3"/>
  <text x="34" y="296" fill="#6B7280" font-family="Nunito, sans-serif" font-size="8">Toetsenbordbediening</text>
  <circle cx="24" cy="312" r="4" fill="#004050" opacity="0.3"/>
  <text x="34" y="316" fill="#6B7280" font-family="Nunito, sans-serif" font-size="8">Focusbeheer &amp; validatie</text>
  <rect x="16" y="332" width="100" height="20" rx="10" fill="#f3f4f6"/>
  <text x="30" y="346" fill="#004050" font-family="Nunito, sans-serif" font-size="8" font-weight="600">Developer focus</text>

  <!-- Card 4: Volledig WCAG-EM (highlighted) -->
  <rect x="212" y="198" width="184" height="170" rx="10" fill="#e5e7eb"/>
  <rect x="208" y="194" width="184" height="170" rx="10" fill="#fff" stroke="#A30D4B" stroke-width="2"/>
  <rect x="208" y="194" width="184" height="6" rx="3" fill="#A30D4B"/>
  <text x="224" y="226" fill="#1F2937" font-family="Nunito Sans, sans-serif" font-size="11" font-weight="700">Volledig WCAG-EM</text>
  <text x="224" y="244" fill="#A30D4B" font-family="Nunito Sans, sans-serif" font-size="16" font-weight="700">v.a. 1.800</text>
  <line x1="224" y1="254" x2="376" y2="254" stroke="#f3f4f6" stroke-width="1"/>
  <circle cx="232" cy="272" r="4" fill="#A30D4B" opacity="0.4"/>
  <text x="242" y="276" fill="#6B7280" font-family="Nunito, sans-serif" font-size="8">55 succescriteria</text>
  <circle cx="232" cy="292" r="4" fill="#A30D4B" opacity="0.4"/>
  <text x="242" y="296" fill="#6B7280" font-family="Nunito, sans-serif" font-size="8">WCAG 2.2 niveau AA</text>
  <circle cx="232" cy="312" r="4" fill="#A30D4B" opacity="0.4"/>
  <text x="242" y="316" fill="#6B7280" font-family="Nunito, sans-serif" font-size="8">Erkende methodiek</text>
  <rect x="224" y="332" width="100" height="20" rx="10" fill="#fdf2f8"/>
  <text x="238" y="346" fill="#A30D4B" font-family="Nunito, sans-serif" font-size="8" font-weight="700">Meest compleet</text>
</svg>
